<?xml version="1.0" standalone="no"?>
<!DOCTYPE svg PUBLIC "-//W3C//DTD SVG 20010904//EN"
 "http://www.w3.org/TR/2001/REC-SVG-20010904/DTD/svg10.dtd">
<svg version="1.0" xmlns="http://www.w3.org/2000/svg"
 width="512.000000pt" height="512.000000pt" viewBox="0 0 512.000000 512.000000"
 preserveAspectRatio="xMidYMid meet">

<g transform="translate(0.000000,512.000000) scale(0.100000,-0.100000)"
fill="#000000" stroke="none">
<path d="M1640 4951 c-53 -11 -94 -36 -132 -81 -77 -89 -77 -211 0 -300 47
-56 97 -79 187 -87 l75 -6 0 -118 0 -119 -282 0 c-156 0 -326 -5 -378 -10
-252 -27 -446 -117 -628 -294 -138 -134 -233 -296 -285 -491 -21 -80 -21 -85
-25 -1415 -2 -991 0 -1346 9 -1377 14 -53 68 -117 123 -146 39 -21 52 -22 291
-22 218 0 256 2 297 18 57 22 119 89 136 145 9 29 12 344 12 1221 0 1220 0
1208 39 1238 17 13 60 17 85 7 41 -16 41 -4 46 -1224 l5 -1175 27 -51 c33 -63
117 -140 169 -155 l39 -12 0 -65 c0 -36 5 -82 12 -103 15 -51 69 -114 122
-142 l41 -22 930 0 c1054 0 988 -5 1063 80 46 52 62 100 62 183 l0 61 54 24
c64 30 125 89 157 155 l24 47 5 1180 c3 649 6 1181 8 1182 1 1 12 11 24 23 22
20 61 26 93 14 46 -18 45 13 45 -1245 0 -868 3 -1192 12 -1220 15 -51 69 -114
122 -142 39 -21 52 -22 291 -22 218 0 256 2 297 18 57 22 119 89 136 145 9 29
12 372 12 1339 0 1408 1 1379 -54 1541 -104 304 -346 549 -646 652 -136 46
-188 52 -552 57 l-348 5 0 118 0 117 68 6 c91 7 145 31 190 83 104 117 70 291
-72 367 l-41 22 -915 2 c-503 0 -931 -2 -950 -6z m1861 -170 c33 -27 33 -95 0
-122 -22 -18 -55 -19 -938 -19 l-914 0 -24 25 c-16 15 -25 36 -25 55 0 19 9
40 25 55 l24 25 914 0 c883 0 916 -1 938 -19z m-291 -421 l0 -120 -645 0 -645
0 0 120 0 120 645 0 645 0 0 -120z m955 -307 c157 -50 312 -147 409 -254 56
-62 122 -157 114 -165 -3 -2 -84 34 -180 82 -178 88 -230 103 -301 90 -19 -4
-99 -45 -178 -92 -79 -47 -155 -88 -169 -90 -19 -4 -62 17 -179 88 -147 88
-157 93 -220 96 l-66 4 -193 -96 c-111 -55 -205 -96 -222 -96 -19 0 -78 30
-169 85 -220 133 -248 133 -468 -1 -83 -50 -149 -84 -165 -84 -15 0 -110 41
-211 91 -187 93 -238 108 -310 95 -19 -4 -99 -45 -178 -93 -93 -55 -155 -86
-174 -87 -20 0 -77 28 -179 89 -142 85 -152 90 -215 93 l-66 4 -192 -96 c-106
-53 -193 -92 -193 -87 0 21 84 132 147 195 120 120 274 205 436 241 51 11 329
13 1557 11 l1495 -1 70 -22z m-3124 -474 c228 -139 248 -139 468 -8 83 49 161
89 175 89 14 0 111 -43 217 -95 262 -131 267 -130 503 14 63 39 127 73 141 77
20 5 56 -12 182 -87 149 -89 160 -94 222 -97 66 -4 66 -4 259 92 106 53 205
96 220 96 15 0 84 -35 167 -84 225 -135 250 -135 472 0 85 52 149 84 166 84
15 0 109 -41 210 -92 156 -78 191 -92 247 -97 l64 -6 14 -45 c39 -129 41 -179
42 -815 0 -580 -1 -621 -17 -631 -10 -6 -43 -27 -75 -47 l-56 -36 -86 114
c-47 63 -99 121 -115 130 -46 23 -119 19 -166 -10 -22 -13 -43 -25 -47 -25 -5
0 -8 222 -8 493 l0 492 -24 50 c-25 54 -71 100 -123 122 -37 15 -140 17 -176
4 -39 -15 -96 -70 -119 -115 -11 -23 -22 -43 -24 -45 -2 -2 -58 29 -124 68
-137 81 -195 99 -261 81 -24 -7 -123 -52 -221 -101 -98 -49 -187 -89 -198 -89
-12 0 -89 40 -172 90 -83 49 -166 92 -185 96 -74 14 -122 -3 -278 -96 -82 -50
-159 -90 -171 -90 -12 0 -107 42 -211 93 -103 52 -204 97 -223 101 -58 10
-129 -16 -253 -92 l-117 -72 -15 38 c-45 106 -179 173 -285 141 -51 -15 -121
-76 -146 -126 -18 -35 -19 -75 -24 -545 l-5 -507 -44 29 c-51 35 -122 40 -172
15 -16 -9 -68 -67 -115 -131 -84 -110 -88 -114 -108 -99 -12 8 -45 29 -74 47
l-52 33 0 635 c0 610 5 722 32 812 11 38 12 38 64 38 46 0 74 11 241 94 111
56 201 95 219 95 22 1 70 -23 165 -80z m860 -574 c182 -90 194 -95 255 -95 74
0 90 7 260 111 76 47 123 69 144 69 22 0 77 -27 178 -87 141 -85 148 -88 216
-91 l71 -4 193 96 c106 53 203 96 215 96 12 0 91 -41 175 -90 l152 -90 0 -100
c0 -55 -2 -100 -5 -100 -2 0 -46 25 -97 56 -131 80 -164 94 -230 94 -51 0 -73
-8 -247 -95 -106 -52 -204 -95 -219 -95 -17 0 -81 33 -166 84 -222 135 -247
135 -471 0 -84 -50 -151 -84 -167 -84 -15 0 -114 43 -220 96 -193 96 -193 96
-259 92 -61 -3 -74 -9 -187 -76 -66 -39 -123 -72 -126 -72 -3 0 -6 44 -6 98
l0 97 153 92 c83 51 162 93 174 93 12 0 108 -43 214 -95z m1711 -373 l148 -87
0 -722 c0 -398 -3 -723 -6 -723 -3 0 -60 33 -127 72 -120 72 -122 73 -193 73
-70 0 -75 -2 -258 -92 -107 -53 -200 -93 -216 -93 -19 0 -77 29 -168 85 -215
131 -247 131 -465 0 -88 -53 -151 -85 -169 -85 -16 0 -109 41 -211 92 -181 92
-182 92 -257 93 l-76 0 -121 -72 c-67 -40 -124 -73 -127 -73 -3 0 -6 324 -6
719 l0 720 152 90 c84 50 163 91 175 91 12 0 105 -41 206 -91 187 -93 238
-108 310 -95 19 4 102 47 185 96 83 50 161 90 173 90 13 0 93 -42 178 -92
l155 -93 71 0 c68 1 75 3 264 98 137 69 200 96 215 91 11 -3 87 -45 168 -92z
m-2792 -678 l70 -47 0 -213 c0 -118 -2 -214 -5 -214 -3 0 -23 12 -44 26 -56
36 -109 42 -163 15 -33 -16 -62 -45 -122 -126 -43 -58 -82 -107 -87 -110 -4
-3 -40 15 -79 41 l-70 47 0 213 c0 118 2 214 5 214 3 0 23 -12 44 -26 56 -36
109 -42 163 -15 35 16 61 44 124 130 43 61 82 110 87 110 4 1 39 -20 77 -45z
m3652 -64 c118 -156 171 -179 282 -121 l56 30 0 -213 0 -213 -70 -47 c-38 -25
-73 -46 -77 -45 -5 0 -44 50 -88 110 -62 85 -90 114 -123 130 -54 27 -107 21
-163 -15 -21 -14 -41 -26 -44 -26 -3 0 -5 96 -5 214 l0 213 68 46 c37 25 70
46 74 46 4 1 44 -48 90 -109z m-3582 -765 l0 -165 -285 0 -285 0 0 110 c0 61
3 110 6 110 3 0 25 -12 50 -26 53 -31 120 -34 167 -7 17 10 70 69 115 131 l84
111 74 -50 74 -50 0 -164z m3585 147 c44 -59 95 -115 114 -126 47 -27 111 -24
165 8 25 14 47 26 50 26 3 0 6 -49 6 -110 l0 -110 -285 0 -285 0 0 165 0 164
73 50 c39 27 74 47 77 44 3 -2 41 -52 85 -111z m-2577 -266 c103 -51 203 -96
224 -100 63 -11 125 11 272 99 90 54 152 85 170 85 18 0 74 -27 150 -74 173
-105 182 -109 251 -109 56 0 74 7 253 96 107 54 203 97 215 97 12 0 90 -41
175 -92 l154 -92 -4 -87 c-3 -97 -17 -125 -78 -166 l-33 -23 -1084 0 c-1201 0
-1115 -5 -1170 67 -25 32 -28 46 -31 122 l-4 86 118 70 c161 96 196 115 216
115 10 0 103 -42 206 -94z m-1010 -267 c-7 -100 -5 -99 -285 -99 l-234 0 -24
25 c-21 20 -25 34 -25 80 l0 55 286 0 286 0 -4 -61z m3920 0 c-7 -100 -5 -99
-285 -99 l-234 0 -24 25 c-21 20 -25 34 -25 80 l0 55 286 0 286 0 -4 -61z
m-1280 -320 c-8 -109 89 -99 -965 -99 l-914 0 -24 25 c-21 20 -25 34 -25 80
l0 55 966 0 966 0 -4 -61z"/>
<path d="M1791 2284 c-41 -52 -17 -93 78 -138 l61 -30 0 -58 0 -58 -60 0 -59
0 -38 73 c-37 70 -39 72 -79 75 -35 3 -45 -1 -63 -24 -28 -35 -27 -42 14 -130
l34 -76 -34 -69 c-19 -37 -35 -79 -35 -92 0 -31 25 -63 54 -71 46 -11 73 9
111 84 l35 70 60 0 60 0 0 -58 0 -58 -62 -30 c-34 -16 -70 -38 -80 -48 -36
-39 -14 -107 38 -120 19 -5 47 3 102 29 l76 36 77 -36 c56 -26 84 -34 103 -29
52 13 74 81 38 120 -10 10 -46 32 -80 48 l-62 30 0 58 0 58 60 0 60 0 34 -69
c40 -79 70 -98 123 -76 54 23 56 59 8 156 l-36 70 36 64 c40 72 44 116 15 145
-25 25 -81 27 -102 3 -8 -10 -29 -44 -47 -75 l-32 -58 -60 0 -59 0 0 55 0 55
70 35 c38 19 74 44 80 54 14 28 12 63 -6 89 -22 32 -72 28 -152 -12 l-67 -34
-65 34 c-81 41 -121 43 -149 8z"/>
<path d="M2911 2284 c-41 -52 -17 -93 78 -138 l61 -30 0 -58 0 -58 -60 0 -59
0 -38 73 c-37 70 -39 72 -79 75 -35 3 -45 -1 -63 -24 -28 -35 -27 -42 14 -130
l34 -76 -34 -69 c-19 -37 -35 -79 -35 -92 0 -31 25 -63 54 -71 46 -11 73 9
111 84 l35 70 60 0 60 0 0 -58 0 -58 -62 -30 c-34 -16 -70 -38 -80 -48 -36
-39 -14 -107 38 -120 19 -5 47 3 102 29 l76 36 77 -36 c56 -26 84 -34 103 -29
52 13 74 81 38 120 -10 10 -46 32 -80 48 l-62 30 0 58 0 58 60 0 60 0 34 -69
c40 -79 70 -98 123 -76 54 23 56 59 8 156 l-36 70 36 64 c40 72 44 116 15 145
-25 25 -81 27 -102 3 -8 -10 -29 -44 -47 -75 l-32 -58 -60 0 -59 0 0 55 0 55
70 35 c38 19 74 44 80 54 14 28 12 63 -6 89 -22 32 -72 28 -152 -12 l-67 -34
-65 34 c-81 41 -121 43 -149 8z"/>
</g>
</svg>
