<?xml version="1.0" standalone="no"?>
<!DOCTYPE svg PUBLIC "-//W3C//DTD SVG 20010904//EN"
 "http://www.w3.org/TR/2001/REC-SVG-20010904/DTD/svg10.dtd">
<svg version="1.0" xmlns="http://www.w3.org/2000/svg"
 width="512.000000pt" height="512.000000pt" viewBox="0 0 512.000000 512.000000"
 preserveAspectRatio="xMidYMid meet">

<g transform="translate(0.000000,512.000000) scale(0.100000,-0.100000)"
fill="#000000" stroke="none">
<path d="M1100 4971 c-69 -21 -140 -82 -176 -151 -18 -34 -19 -110 -19 -2260
l0 -2225 22 -40 c25 -47 84 -105 133 -131 34 -18 91 -19 1500 -19 1409 0 1466
1 1500 19 49 26 108 84 133 131 l22 40 0 2225 c0 2150 -1 2226 -19 2260 -26
49 -84 108 -131 133 l-40 22 -1450 2 c-797 1 -1461 -2 -1475 -6z m2917 -151
c68 -41 63 150 63 -2262 0 -2147 0 -2184 -20 -2215 -41 -68 69 -63 -1500 -63
-1569 0 -1459 -5 -1500 63 -20 31 -20 68 -20 2215 0 2412 -5 2221 63 2262 31
20 61 20 1457 20 1396 0 1426 0 1457 -20z"/>
<path d="M2350 4635 l0 -65 210 0 210 0 0 65 0 65 -210 0 -210 0 0 -65z"/>
<path d="M1270 4410 c-20 -20 -20 -30 -20 -1643 0 -1561 1 -1625 18 -1640 17
-16 121 -17 1294 -17 1222 0 1276 1 1291 18 16 17 17 145 17 1638 0 1383 -2
1623 -14 1640 -14 19 -40 19 -1290 22 -1267 2 -1276 2 -1296 -18z m2470 -1640
l0 -1520 -1180 0 -1180 0 0 1520 0 1520 1180 0 1180 0 0 -1520z"/>
<path d="M2170 3236 c-231 -65 -390 -302 -352 -525 14 -80 81 -218 154 -316
106 -143 479 -487 562 -519 13 -5 34 -6 47 -3 71 19 456 374 567 522 75 99
140 235 154 318 37 226 -123 461 -357 523 -104 28 -250 11 -342 -41 l-43 -24
-43 24 c-91 51 -245 69 -347 41z m231 -141 c24 -9 64 -29 89 -45 59 -38 84
-38 140 0 71 47 131 63 219 58 172 -10 303 -137 318 -309 12 -122 -77 -277
-271 -477 -118 -121 -304 -284 -332 -290 -21 -5 -213 159 -344 294 -192 198
-276 346 -267 470 10 139 98 251 235 300 50 18 160 17 213 -1z"/>
<path d="M2499 964 c-15 -3 -51 -20 -80 -37 -99 -59 -153 -179 -129 -289 47
-220 323 -295 473 -128 53 57 70 103 71 181 1 147 -106 263 -251 273 -32 2
-70 2 -84 0z m128 -154 c65 -39 89 -118 55 -180 -53 -96 -191 -96 -244 0 -47
86 23 200 122 200 19 0 49 -9 67 -20z"/>
</g>
</svg>
