<?xml version="1.0" standalone="no"?>
<!DOCTYPE svg PUBLIC "-//W3C//DTD SVG 20010904//EN"
 "http://www.w3.org/TR/2001/REC-SVG-20010904/DTD/svg10.dtd">
<svg version="1.0" xmlns="http://www.w3.org/2000/svg"
 width="512.000000pt" height="512.000000pt" viewBox="0 0 512.000000 512.000000"
 preserveAspectRatio="xMidYMid meet">

<g transform="translate(0.000000,512.000000) scale(0.100000,-0.100000)"
fill="#000000" stroke="none">
<path d="M2165 5104 c-220 -39 -413 -140 -571 -298 -162 -162 -260 -352 -299
-580 -12 -74 -15 -206 -15 -790 0 -713 4 -803 39 -881 l18 -41 -86 -44 c-68
-35 -105 -63 -177 -135 -78 -77 -98 -105 -137 -185 -26 -52 -53 -124 -61 -160
-21 -86 -20 -245 0 -324 37 -144 138 -274 259 -331 110 -52 147 -55 703 -55
l512 0 -2 -213 -3 -212 -375 -5 -375 -5 -69 -34 c-273 -133 -329 -484 -111
-690 174 -164 426 -160 596 9 56 56 107 159 117 237 l7 58 425 0 425 0 7 -60
c16 -127 114 -262 232 -320 166 -81 367 -45 495 90 201 213 140 546 -124 676
l-70 34 -375 5 -375 5 -3 213 -2 212 512 0 c559 0 594 3 705 57 31 15 85 55
119 88 102 101 154 236 154 400 0 123 -21 211 -76 324 -40 81 -60 109 -138
186 -72 72 -109 100 -177 135 l-86 44 19 42 c10 24 23 76 28 116 5 40 10 386
10 769 0 569 -3 712 -15 781 -40 233 -136 419 -300 584 -160 161 -351 260
-579 299 -121 20 -663 20 -781 -1z m817 -445 c190 -74 323 -206 397 -397 l26
-67 3 -725 c2 -507 0 -736 -8 -763 -14 -49 -65 -106 -115 -128 -37 -17 -84
-19 -723 -19 -746 0 -722 -2 -785 58 -16 15 -37 44 -48 64 -18 36 -19 68 -19
751 0 788 -1 767 65 902 62 126 163 228 290 290 126 62 144 65 515 62 334 -2
335 -2 402 -28z m683 -2561 c104 -55 167 -150 173 -260 4 -63 2 -69 -25 -96
l-29 -30 -889 -7 c-925 -8 -1444 -3 -1530 15 -71 14 -89 39 -82 116 10 131 90
235 216 280 29 11 243 13 1076 11 l1040 -2 50 -27z"/>
</g>
</svg>
