<?xml version="1.0" standalone="no"?>
<!DOCTYPE svg PUBLIC "-//W3C//DTD SVG 20010904//EN"
 "http://www.w3.org/TR/2001/REC-SVG-20010904/DTD/svg10.dtd">
<svg version="1.0" xmlns="http://www.w3.org/2000/svg"
 width="512.000000pt" height="512.000000pt" viewBox="0 0 512.000000 512.000000"
 preserveAspectRatio="xMidYMid meet">

<g transform="translate(0.000000,512.000000) scale(0.100000,-0.100000)"
fill="#000000" stroke="none">
<path d="M3165 4445 c-177 -49 -1121 -337 -1129 -345 -5 -5 109 -208 280 -497
347 -588 328 -559 378 -588 65 -37 1163 -365 1224 -365 41 0 135 33 539 191
268 106 494 196 501 202 6 5 12 19 12 31 -1 33 -493 987 -521 1008 -25 19
-1128 362 -1195 371 -21 4 -61 0 -89 -8z m345 -461 c174 -29 368 -104 490
-187 72 -50 163 -148 195 -212 38 -76 46 -165 19 -221 -26 -55 -100 -126 -165
-158 -79 -38 -203 -59 -312 -52 -271 18 -608 139 -737 265 -152 149 -175 372
-49 485 113 102 284 127 559 80z"/>
<path d="M3100 3899 c-45 -20 -80 -46 -80 -59 0 -4 53 -10 118 -14 337 -20
643 -141 900 -355 34 -28 67 -49 72 -46 14 8 13 98 -1 129 -24 52 -192 170
-343 242 -223 105 -550 156 -666 103z"/>
<path d="M2963 3724 c-3 -9 -2 -33 3 -53 l9 -36 129 -12 c325 -31 499 -92 705
-245 75 -57 112 -78 134 -78 44 0 107 21 107 36 0 7 -30 38 -67 67 -232 187
-501 293 -823 327 -142 14 -189 13 -197 -6z"/>
<path d="M1925 3838 c-3 -7 -29 -112 -59 -234 -43 -176 -53 -228 -46 -257 7
-32 505 -902 535 -935 10 -11 14 -11 22 0 13 17 113 454 113 494 0 31 -17 60
-404 712 -76 127 -142 232 -147 232 -5 0 -12 -6 -14 -12z"/>
<path d="M749 2979 c-167 -99 -314 -190 -326 -202 -15 -15 -72 -171 -183 -497
-88 -261 -160 -482 -160 -492 0 -10 57 -180 127 -378 90 -257 132 -364 145
-371 16 -8 80 21 351 163 183 95 347 186 365 202 29 26 45 67 177 470 80 242
145 453 145 468 0 29 -262 758 -286 796 -8 12 -23 22 -32 22 -10 0 -155 -81
-323 -181z"/>
<path d="M1350 3094 c0 -14 173 -513 205 -591 7 -17 24 -39 37 -47 32 -21 405
-129 418 -121 6 3 10 10 10 15 0 18 -342 635 -360 651 -19 17 -270 109 -296
109 -8 0 -14 -7 -14 -16z"/>
<path d="M4530 2664 c-261 -112 -485 -209 -498 -216 -12 -6 -31 -26 -41 -42
-17 -27 -141 -466 -141 -497 0 -7 9 -9 23 -5 13 3 221 88 462 190 371 156 444
190 468 218 30 34 239 536 231 550 -3 5 -11 8 -17 7 -7 0 -226 -92 -487 -205z"/>
<path d="M2666 2775 c-9 -9 -20 -33 -25 -53 -100 -383 -111 -433 -102 -451 8
-14 143 -63 538 -195 291 -97 535 -176 544 -176 30 0 46 36 112 260 69 230 76
270 55 287 -13 11 -1075 343 -1095 343 -7 0 -19 -7 -27 -15z"/>
<path d="M1556 2278 c-13 -22 -286 -883 -286 -904 0 -20 34 -41 213 -134 150
-78 182 -91 201 -82 18 8 46 85 175 481 88 273 151 482 149 498 -3 27 -11 31
-198 95 -107 37 -205 67 -217 67 -13 1 -29 -9 -37 -21z"/>
<path d="M2095 1930 c-15 -24 -212 -706 -207 -718 10 -28 52 -34 87 -12 54 34
161 155 209 237 78 132 148 370 126 427 -5 15 -31 29 -92 49 -91 29 -113 32
-123 17z"/>
<path d="M2482 1807 c-5 -7 -12 -49 -15 -94 -13 -176 -114 -387 -253 -530 -68
-69 -65 -77 30 -110 77 -27 78 -27 173 50 170 137 290 373 281 552 -3 68 -3
68 -140 119 -50 18 -69 22 -76 13z"/>
<path d="M2846 1671 c-3 -5 -10 -42 -16 -82 -31 -218 -125 -409 -264 -537 -31
-28 -56 -57 -56 -65 0 -18 144 -71 174 -63 37 9 113 73 172 144 120 145 238
463 196 530 -8 11 -171 82 -191 82 -6 0 -12 -4 -15 -9z"/>
<path d="M3232 1527 c-5 -7 -18 -50 -29 -97 -42 -176 -138 -351 -267 -488 -41
-43 -66 -78 -64 -89 2 -12 30 -25 93 -45 50 -15 100 -28 111 -28 26 0 142 119
195 200 78 118 127 234 154 366 19 95 13 107 -73 146 -101 46 -109 48 -120 35z"/>
<path d="M3576 1369 c-2 -8 -7 -41 -10 -74 -8 -85 -31 -169 -71 -252 -46 -98
-85 -154 -168 -240 -44 -46 -67 -77 -64 -87 3 -8 36 -24 74 -36 l67 -21 62 31
c91 44 184 143 237 248 41 84 42 88 42 186 -1 114 -28 204 -70 232 -34 22 -94
30 -99 13z"/>
<path d="M1018 1136 c-388 -202 -493 -262 -493 -280 0 -14 47 -37 210 -103
183 -75 213 -84 240 -75 16 5 159 69 318 142 202 94 287 138 287 149 0 19
-338 225 -387 235 -26 6 -53 -4 -175 -68z"/>
</g>
</svg>
