<?xml version="1.0" standalone="no"?>
<!DOCTYPE svg PUBLIC "-//W3C//DTD SVG 20010904//EN"
 "http://www.w3.org/TR/2001/REC-SVG-20010904/DTD/svg10.dtd">
<svg version="1.0" xmlns="http://www.w3.org/2000/svg"
 width="512.000000pt" height="512.000000pt" viewBox="0 0 512.000000 512.000000"
 preserveAspectRatio="xMidYMid meet">

<g transform="translate(0.000000,512.000000) scale(0.100000,-0.100000)"
fill="#000000" stroke="none">
<path d="M1087 4992 l-127 -127 0 -833 0 -832 1600 0 1600 0 0 833 0 832 -128
128 -127 127 -1345 0 -1345 0 -128 -128z m2593 -1152 l0 -320 -160 0 -160 0 0
320 0 320 160 0 160 0 0 -320z"/>
<path d="M960 1807 l0 -1232 128 -128 c110 -110 132 -127 160 -127 l32 0 0
-160 0 -160 1280 0 1280 0 0 160 0 160 33 0 c28 0 48 16 160 128 l127 127 0
1233 0 1232 -1600 0 -1600 0 0 -1233z m2720 273 l0 -640 -160 0 -160 0 0 640
0 640 160 0 160 0 0 -640z"/>
</g>
</svg>
