<?xml version="1.0" standalone="no"?>
<!DOCTYPE svg PUBLIC "-//W3C//DTD SVG 20010904//EN"
 "http://www.w3.org/TR/2001/REC-SVG-20010904/DTD/svg10.dtd">
<svg version="1.0" xmlns="http://www.w3.org/2000/svg"
 width="512.000000pt" height="512.000000pt" viewBox="0 0 512.000000 512.000000"
 preserveAspectRatio="xMidYMid meet">

<g transform="translate(0.000000,512.000000) scale(0.100000,-0.100000)"
fill="#000000" stroke="none">
<path d="M2353 5100 c-13 -5 -32 -24 -43 -42 -19 -31 -20 -51 -20 -302 l0
-268 42 -42 c70 -70 68 -46 68 -836 l0 -707 -62 -17 c-191 -53 -358 -203 -409
-367 -25 -80 -25 -197 0 -264 71 -189 82 -229 88 -307 4 -67 1 -98 -16 -161
-38 -140 -90 -229 -217 -372 -154 -172 -201 -234 -240 -315 -85 -171 -86 -371
-4 -547 130 -280 459 -485 853 -534 132 -16 347 -5 477 25 391 90 679 330 755
631 19 75 19 211 0 292 -34 146 -83 219 -346 514 -93 105 -133 182 -170 328
-34 133 -25 205 41 348 50 106 60 143 60 230 0 85 -25 173 -70 243 -72 112
-220 218 -358 256 l-63 17 3 731 c2 543 6 736 15 752 6 11 30 39 52 61 l41 41
0 266 c0 372 12 356 -272 355 -101 0 -193 -4 -205 -9z m333 -2447 c136 -45
232 -155 254 -290 10 -61 5 -97 -34 -228 -38 -127 -59 -289 -52 -406 13 -211
72 -351 225 -531 54 -64 112 -143 128 -175 26 -53 28 -67 28 -169 0 -106 -1
-113 -35 -178 -138 -274 -545 -407 -900 -295 -185 58 -328 174 -392 315 -15
35 -23 75 -26 139 -7 144 19 200 178 385 139 161 188 291 197 520 6 155 -10
282 -53 425 -37 126 -37 202 4 288 45 97 118 161 231 202 52 19 187 18 247 -2z"/>
</g>
</svg>
