<?xml version="1.0" standalone="no"?>
<!DOCTYPE svg PUBLIC "-//W3C//DTD SVG 20010904//EN"
 "http://www.w3.org/TR/2001/REC-SVG-20010904/DTD/svg10.dtd">
<svg version="1.0" xmlns="http://www.w3.org/2000/svg"
 width="333.000000pt" height="362.000000pt" viewBox="0 0 333.000000 362.000000"
 preserveAspectRatio="xMidYMid meet">

<g transform="translate(0.000000,362.000000) scale(0.100000,-0.100000)"
fill="#000000" stroke="none">
<path d="M450 3492 c-63 -5 -80 -11 -80 -32 0 -11 5 -20 10 -20 6 0 10 -13 10
-30 0 -16 5 -30 10 -30 6 0 10 -9 10 -20 0 -11 4 -20 8 -20 5 0 15 -22 22 -50
7 -27 17 -50 22 -50 4 0 8 -12 8 -26 0 -35 22 -54 64 -54 20 0 36 -4 36 -10 0
-5 9 -10 20 -10 22 0 60 -53 60 -82 0 -10 5 -18 10 -18 6 0 10 -12 10 -26 0
-29 21 -54 44 -54 9 0 16 -4 16 -10 0 -5 8 -10 19 -10 11 0 21 -9 25 -22 10
-39 7 -2064 -3 -2092 -7 -18 -19 -25 -43 -28 -34 -3 -41 -12 -73 -98 -28 -75
-28 -75 -86 -78 -29 -2 -59 -8 -67 -14 -7 -6 -29 -41 -49 -77 -53 -96 -69
-111 -118 -111 -54 0 -73 -21 -119 -127 -19 -45 -46 -103 -60 -128 -14 -25
-26 -55 -26 -65 0 -20 16 -20 1536 -20 1351 0 1537 2 1550 15 14 13 14 17 -1
31 -9 9 -19 29 -22 45 -3 16 -9 29 -14 29 -5 0 -9 9 -9 20 0 11 -4 20 -10 20
-5 0 -10 9 -10 20 0 11 -4 20 -10 20 -5 0 -10 9 -10 20 0 11 -4 20 -10 20 -5
0 -10 9 -10 20 0 11 -4 20 -10 20 -5 0 -10 7 -10 16 0 27 -27 44 -72 44 -37 0
-48 5 -76 35 -17 20 -32 42 -32 50 0 8 -4 15 -10 15 -5 0 -10 9 -10 20 0 11
-4 20 -10 20 -5 0 -10 7 -10 16 0 28 -27 44 -77 44 -57 1 -83 17 -83 54 0 14
-3 26 -7 26 -9 0 -33 49 -33 67 0 7 -4 13 -10 13 -5 0 -10 9 -10 20 0 11 -4
20 -10 20 -5 0 -10 14 -10 30 0 17 -4 30 -10 30 -5 0 -10 9 -10 20 0 11 -4 20
-10 20 -5 0 -10 14 -10 30 0 17 -4 30 -10 30 -5 0 -10 9 -10 20 0 11 -4 20
-10 20 -5 0 -10 14 -10 30 0 17 -4 30 -10 30 -5 0 -10 9 -10 20 0 11 -4 20
-10 20 -5 0 -10 7 -10 16 0 35 -26 44 -123 44 -93 0 -96 -1 -120 -30 -14 -16
-28 -40 -32 -52 -11 -40 -129 -272 -145 -285 -21 -17 -331 -18 -348 -1 -9 9
-12 260 -12 1070 0 1051 0 1058 20 1058 11 0 20 5 20 10 0 6 7 10 16 10 23 0
44 25 44 54 0 14 5 26 10 26 6 0 10 9 10 20 0 11 5 20 10 20 6 0 10 14 10 30
0 27 3 30 30 30 17 0 30 5 30 10 0 6 16 10 36 10 42 0 64 19 64 54 0 14 5 26
10 26 6 0 10 9 10 20 0 11 5 20 10 20 6 0 10 14 10 30 0 17 5 30 10 30 6 0 10
9 10 20 0 11 5 20 10 20 6 0 10 14 10 30 0 17 5 30 10 30 14 0 12 29 -2 43
-10 9 -215 12 -823 12 -445 0 -826 -1 -845 -3z m1577 -94 c-10 -46 -44 -127
-63 -152 l-19 -26 -693 0 c-734 0 -722 -1 -722 44 0 9 -4 16 -10 16 -5 0 -10
14 -10 30 0 17 -4 30 -10 30 -5 0 -10 9 -10 20 0 11 -4 20 -10 20 -5 0 -10 9
-10 20 0 20 7 20 781 20 l781 0 -5 -22z m-1237 -248 c0 -7 160 -10 460 -10
300 0 460 3 460 10 0 15 49 12 66 -4 24 -25 15 -72 -23 -113 -9 -10 -114 -13
-500 -13 -511 1 -523 2 -523 44 0 9 -4 16 -10 16 -14 0 -12 48 3 65 14 16 67
20 67 5z m146 -205 c12 -12 15 -161 15 -1077 l1 -1063 -36 -3 c-71 -6 -66 -89
-66 1082 0 1049 0 1056 20 1056 11 0 20 5 20 10 0 15 29 12 46 -5z m234 5 c0
-5 9 -10 20 -10 20 0 20 -7 20 -1058 0 -810 -3 -1061 -12 -1070 -17 -17 -136
-16 -154 2 -12 12 -14 168 -14 1066 0 826 3 1054 13 1065 14 17 127 21 127 5z
m286 -4 c12 -13 14 -166 12 -1078 l-3 -1063 -73 -3 c-54 -2 -76 1 -87 12 -13
13 -15 154 -15 1070 0 1049 0 1056 20 1056 11 0 20 5 20 10 0 16 109 12 126
-4z m154 4 c0 -5 9 -10 20 -10 20 0 20 -5 18 -1067 l-3 -1068 -33 -3 c-67 -7
-62 -85 -62 1075 0 829 3 1057 13 1068 14 16 47 20 47 5z m846 -1864 c8 -8 14
-20 14 -26 0 -6 9 -30 20 -52 11 -23 20 -48 20 -55 0 -7 5 -13 10 -13 6 0 10
-9 10 -19 0 -11 5 -23 10 -26 6 -3 10 -17 10 -31 0 -13 5 -24 10 -24 6 0 10
-9 10 -20 0 -11 5 -20 10 -20 6 0 10 -11 10 -24 0 -14 5 -28 10 -31 6 -3 10
-15 10 -26 0 -10 4 -19 9 -19 11 0 20 -59 10 -65 -4 -3 -432 -6 -952 -8 -728
-1 -947 1 -956 10 -14 15 -15 43 -1 43 6 0 10 9 10 20 0 13 7 20 20 20 11 0
20 5 20 10 0 7 232 10 676 10 710 0 704 0 704 42 0 8 9 20 20 28 11 8 20 26
20 40 0 14 9 32 20 40 12 8 20 26 20 42 0 15 5 28 10 28 6 0 10 9 10 20 0 11
5 20 10 20 6 0 10 9 10 20 0 11 5 20 10 20 6 0 10 7 10 15 0 32 24 44 88 45
42 0 68 -5 78 -14z m349 -551 c14 -13 25 -31 25 -40 0 -8 5 -15 11 -15 6 0 9
-12 7 -27 l-3 -28 -1172 -3 -1173 -2 -6 27 c-5 17 -3 28 4 31 7 2 12 10 12 18
0 8 10 26 23 39 l22 24 1113 0 1113 1 24 -25z m220 -200 c14 -13 25 -31 25
-40 0 -8 5 -15 10 -15 6 0 10 -10 10 -23 0 -13 9 -33 21 -45 51 -56 136 -52
-1406 -52 -781 0 -1426 0 -1433 0 -7 0 -11 4 -8 9 4 5 0 11 -6 14 -9 3 -6 11
10 24 12 11 22 31 22 44 0 14 9 31 20 39 11 8 20 20 20 28 0 43 -49 41 1358
42 l1333 0 24 -25z"/>
</g>
</svg>
