<?xml version="1.0" encoding="UTF-8"?>
<svg width="137px" height="56px" viewBox="0 0 137 56" version="1.1" xmlns="http://www.w3.org/2000/svg" xmlns:xlink="http://www.w3.org/1999/xlink">
    <title>Logo/Panchita</title>
    <g id="Symbols" stroke="none" stroke-width="1" fill="none" fill-rule="evenodd">
        <g id="Navigation/Desktop/1.-Header/-2.-Brown" transform="translate(-64, -16)" fill="#F9F2E4">
            <g id="Logo/Panchita" transform="translate(64, 16)">
                <path d="M7.24790526,20.8113302 L0.128727275,20.8113302 C0.0503715424,20.8113302 0.0279841902,21.1585302 0.0503715424,21.3433302 L1.36562848,21.8249302 C1.72942295,21.9481302 1.8245692,22.3177302 1.8245692,22.7209302 L1.8245692,30.0009302 L1.85255339,33.4953302 C1.89109013,34.0447855 1.57616796,34.5579485 1.06899607,34.7721302 L-1.42108547e-14,34.9681302 C-1.42108547e-14,35.2089302 0.0503715424,35.4217302 0.0895494086,35.4217302 L6.80575506,35.4217302 C6.88411079,35.4217302 6.88411079,35.0857302 6.88411079,34.8617302 L4.84686174,34.4305302 C4.67802529,34.4137796 4.52318605,34.3292662 4.41771283,34.1962948 C4.31223961,34.0633235 4.26514192,33.8932526 4.28717794,33.7249302 L4.13606331,29.9785302 L4.13606331,21.9145302 L6.26286177,21.9537302 C8.54077485,21.9985302 9.48664048,23.7513302 9.48664048,25.5881302 C9.48664048,27.7329302 8.36727287,28.9481302 6.12853765,29.0489302 L5.69198429,29.0489302 L5.69198429,30.0009302 L6.29644279,30.0009302 C10.1078895,30.0009302 12.0443955,27.7609302 12.0443955,25.0897302 C12.0443955,22.0825302 10.1470674,20.7721302 7.28148629,20.7721302 M28.4151467,33.3105302 L23.8929016,20.2513302 L22.2138502,20.8113302 L16.9136446,33.5625302 C16.7320729,34.0251124 16.4307226,34.4310054 16.0405378,34.7385302 L15.5983876,34.9345302 C15.5983876,35.0745302 15.5983876,35.3881302 15.6599528,35.3881302 L20.2773442,35.3881302 C20.3389094,35.3881302 20.3612968,35.1529302 20.3612968,34.9345302 L19.3314786,34.6433302 C18.9722975,34.5676834 18.6652472,34.3363287 18.4933592,34.0118285 C18.3214712,33.6873282 18.302502,33.3032043 18.4415813,32.9633302 L19.8575814,29.2225302 L24.5757158,29.2225302 L25.6670992,32.9185302 C25.7291591,33.1334978 25.7630239,33.355626 25.7678423,33.5793302 C25.8142561,34.0330655 25.560234,34.4642393 25.1409965,34.6433302 L23.7921585,34.9177302 C23.7921585,35.1753302 23.7921585,35.3713302 23.8537237,35.3713302 L29.6016764,35.3713302 C29.6800321,35.3713302 29.7024195,35.1361302 29.7024195,34.9345302 L29.3610124,34.7049302 C28.9019514,34.3326265 28.5647365,33.8313942 28.3927594,33.2657302 M20.2773442,28.0689302 L21.8332652,24.0201302 L22.392949,22.3065302 L22.5776447,22.3065302 L23.0589727,24.0537302 L24.2734866,28.0689302 L20.2773442,28.0689302 Z M45.3623723,20.8113302 C45.2784197,20.8113302 45.2784197,21.1809302 45.2784197,21.3713302 L46.3977873,21.7745302 C46.8484506,22.0360422 47.1111486,22.531323 47.0750048,23.0513302 L47.0750048,30.1129302 L47.4332024,31.9553302 L47.2764909,31.9553302 L39.3681588,20.8113302 L35.2097081,20.8113302 C35.1537397,20.8113302 35.1537397,21.1809302 35.1705302,21.3713302 L36.457803,21.7969302 C36.8782385,21.9828216 37.1423616,22.4069898 37.1238267,22.8665302 L37.1238267,30.1465302 L37.0230836,32.9465302 C37.0230836,33.7977302 36.6536923,34.5649302 35.9820718,34.7497302 L34.8627041,34.9457302 C34.8627041,35.2033302 34.8627041,35.3993302 34.9242694,35.3993302 L40.5211074,35.3993302 C40.5994631,35.3993302 40.6218505,35.1081302 40.6218505,34.9009302 L38.8812339,34.4081302 C38.4558742,34.2681302 38.3887121,34.1225302 38.3663248,33.6409302 L38.2935659,30.1185302 L38.2935659,25.2409302 L38.1816291,23.5217302 L38.2991627,23.5217302 L46.9182933,36.1945302 L48.6589099,35.6345302 L48.6589099,23.0009302 C48.604524,22.4225884 48.940448,21.8784042 49.4816451,21.6681302 L50.6010127,21.3209302 C50.6010127,21.0577302 50.6010127,20.7889302 50.5114633,20.7889302 L45.3623723,20.8113302 Z M67.593013,33.7753302 C66.489339,34.217387 65.3054083,34.4234043 64.1173766,34.3801302 C60.888001,34.3801302 58.5932974,31.8769302 58.5932974,27.9905302 C58.5932974,23.6673302 60.7089022,21.8305302 63.6304517,21.8305302 C65.589345,21.8305302 66.6583411,22.7265302 67.2012343,24.2665302 L67.8392739,24.2665302 L67.8392739,21.3993302 C67.0669102,21.0185302 66.0091078,20.5705302 63.6920169,20.5705302 C59.3264832,20.5705302 56.1698666,24.4065302 56.1698666,28.3489302 C56.1698666,33.3889302 58.9235109,35.8529302 63.7871631,35.8529302 C65.2349573,35.8643963 66.6593517,35.4873084 67.9120328,34.7609302 L67.593013,33.7753302 Z M87.4673849,33.6913302 L87.3890291,30.0961302 L87.3890291,22.5753302 C87.3890291,22.0153302 87.5849185,21.8529302 88.0102782,21.7297302 L89.1296458,21.4441302 C89.1538841,21.2341218 89.1632356,21.02266 89.15763,20.8113302 L83.38729,20.8113302 C83.3257247,20.8113302 83.3481121,21.2033302 83.3481121,21.3713302 L84.2939777,21.7353302 C84.826865,22.007999 85.1395976,22.5783373 85.0831319,23.1745302 L85.0831319,27.3353302 L77.8072424,27.3353302 L77.8072424,22.6481302 C77.8072424,22.0881302 77.9023887,21.8585302 78.4284914,21.6961302 L79.5030844,21.4105302 C79.5030844,21.1697302 79.4639065,20.8001302 79.4079381,20.8001302 L73.5592424,20.8001302 C73.503274,20.8001302 73.4752898,21.1921302 73.4752898,21.3601302 L74.779353,21.7241302 C75.2614912,21.9365137 75.5495096,22.4379943 75.4901515,22.9617302 L75.4901515,30.0513302 L75.4453768,33.1649302 C75.4680794,33.8005249 75.1301198,34.3944558 74.57227,34.6993302 L73.4529024,34.9401302 C73.4529024,35.1977302 73.4529024,35.3937302 73.5312582,35.3937302 L79.9060567,35.3937302 C79.9900093,35.3937302 80.0123966,35.0577302 80.0123966,34.8337302 L78.3949104,34.4641302 C77.9695507,34.3241302 77.8352266,34.1393302 77.8352266,33.6353302 L77.7792582,30.0513302 L77.7792582,28.4553302 L85.0551477,28.4553302 L85.0551477,33.1033302 C85.0551477,33.6633302 84.8312742,34.5201302 84.0868947,34.7217302 L83.2081911,34.8561302 C83.2081911,35.0969302 83.2081911,35.3713302 83.2753532,35.3713302 L89.3703098,35.3713302 C89.4486655,35.3713302 89.4710529,34.9961302 89.4710529,34.8113302 L87.9319224,34.5033302 C87.601709,34.4193302 87.4394007,34.2121302 87.4394007,33.6633302 M99.2543258,33.8369302 L99.2543258,30.0961302 L99.2543258,23.1241302 C99.2543258,22.4353302 99.4446183,21.7913302 100.088255,21.6457302 L100.899796,21.4217302 C100.899796,21.1809302 100.866215,20.8113302 100.810247,20.8113302 L95.0846815,20.8113302 C95.0231162,20.8113302 95.0063257,21.1809302 95.0455036,21.3713302 L95.9913692,21.6737302 C96.6338672,21.8641436 97.0499679,22.485119 96.9820095,23.1521302 L96.9820095,30.0849302 L96.8812665,33.3553302 C96.9179648,33.9333568 96.5922896,34.4734794 96.0641281,34.7105302 L95.0231162,34.9513302 C95.0231162,35.2089302 95.0231162,35.4049302 95.0678909,35.4049302 L101.134863,35.4049302 C101.218816,35.4049302 101.241203,35.0465302 101.241203,34.8449302 L99.8419938,34.5761302 C99.3718594,34.4753302 99.28231,34.3689302 99.28231,33.8033302 M105.808223,24.0537302 C106.044322,24.1112512 106.287563,24.133891 106.530215,24.1209302 C106.754089,22.9281302 107.213029,21.9985302 108.209267,21.9985302 L111.186784,21.9537302 L111.186784,33.2377302 C111.186784,33.8817302 110.912539,34.5257302 110.425615,34.6657302 L108.987227,34.9065302 C108.987227,35.1865302 109.020808,35.4217302 109.082373,35.4217302 L115.843354,35.4217302 C115.882532,35.4217302 115.899322,35.1081302 115.899322,34.9065302 L114.18669,34.6153302 C113.783717,34.5145302 113.627006,34.3297302 113.627006,33.7025302 L113.487085,30.3425302 L113.487085,21.9425302 L116.358263,21.9873302 C117.505615,21.9873302 118.037314,22.8329302 118.261188,24.1097302 C118.563417,24.1097302 118.860049,24.1097302 118.860049,24.0481302 L118.860049,20.8057302 L105.808223,20.8057302 L105.808223,24.0537302 Z M135.997568,34.8281302 C135.542845,34.4198168 135.208075,33.8951109 135.029315,33.3105302 L130.507069,20.2513302 L128.856002,20.8113302 L123.5502,33.5625302 C123.372119,34.0255271 123.072401,34.4318249 122.68269,34.7385302 L122.24054,34.9345302 C122.24054,35.0745302 122.24054,35.3881302 122.296508,35.3881302 L126.919496,35.3881302 C126.981061,35.3881302 126.997852,35.1529302 126.997852,34.9345302 L125.968034,34.6433302 C125.608853,34.5676834 125.301802,34.3363287 125.129914,34.0118285 C124.958026,33.6873282 124.939057,33.3032043 125.078137,32.9633302 L126.494137,29.2225302 L131.212271,29.2225302 L132.331639,32.9185302 C132.391806,33.1337479 132.423788,33.3558715 132.426785,33.5793302 C132.475932,34.0320684 132.223833,34.4638327 131.805536,34.6433302 L130.451101,34.9177302 C130.451101,35.1753302 130.451101,35.3713302 130.512666,35.3713302 L136.260619,35.3713302 C136.344571,35.3713302 136.366959,35.1361302 136.366959,34.9345302 L135.997568,34.8281302 Z M126.919496,28.1081302 L128.46982,24.0593302 L129.057488,22.3457302 L129.175022,22.3457302 L129.661947,24.0929302 L130.876461,28.1081302 L126.919496,28.1081302 Z M64.4270991,3.76049473 L68.1880953,2.66453526e-15 L71.9464667,3.76312097 L68.1854705,7.52361569 L64.4270991,3.76049473 Z M64.4256096,52.1914263 L68.1833246,48.4276491 L71.9449766,52.187487 L68.1872617,55.9512642 L64.4256096,52.1914263 Z" id="Combined-Shape"></path>
            </g>
        </g>
    </g>
</svg>