<?xml version="1.0" standalone="no"?>
<!DOCTYPE svg PUBLIC "-//W3C//DTD SVG 20010904//EN"
 "http://www.w3.org/TR/2001/REC-SVG-20010904/DTD/svg10.dtd">
<svg version="1.0" xmlns="http://www.w3.org/2000/svg"
 width="512.000000pt" height="512.000000pt" viewBox="0 0 512.000000 512.000000"
 preserveAspectRatio="xMidYMid meet">

<g transform="translate(0.000000,512.000000) scale(0.100000,-0.100000)"
fill="#000000" stroke="none">
<path d="M2400 4898 l0 -212 -145 -145 -145 -146 0 343 0 343 -22 -6 c-88 -27
-219 -137 -272 -228 -16 -26 -39 -77 -52 -115 l-24 -67 0 -504 0 -503 98 93
c107 103 177 154 279 202 58 27 79 31 148 32 46 0 94 -6 112 -14 97 -41 104
-212 9 -245 -18 -7 -53 -5 -114 7 -164 31 -308 15 -461 -54 l-71 -32 0 -869 0
-870 94 89 c175 168 302 236 443 237 88 1 114 -10 156 -66 27 -37 28 -119 0
-156 -30 -41 -62 -48 -146 -33 -161 30 -253 25 -397 -21 -194 -62 -266 -153
-259 -326 l4 -77 -112 -75 c-316 -212 -682 -359 -1057 -424 -49 -9 -91 -17
-93 -20 -8 -8 48 -131 94 -205 56 -90 164 -201 248 -256 75 -49 205 -99 314
-119 107 -20 367 -37 544 -35 123 1 138 4 134 18 -3 9 -17 44 -31 78 -15 34
-29 89 -33 122 -5 57 -7 60 -20 41 -32 -45 -128 -65 -186 -39 -51 23 -55 59
-27 249 10 73 10 99 -4 180 -9 52 -32 133 -51 180 -19 46 -33 86 -31 87 8 8
188 -193 231 -257 52 -78 94 -181 96 -233 l1 -32 15 37 c16 38 33 50 33 24 0
-8 20 -54 45 -102 145 -288 357 -428 720 -475 115 -15 730 -15 937 1 244 17
489 63 678 127 l55 18 3 1696 2 1697 -29 11 c-36 16 -87 68 -100 104 -7 18
-11 170 -11 427 0 360 2 400 16 408 14 8 7 17 -42 56 -70 56 -129 88 -201 109
l-53 16 0 -211 0 -211 -137 -141 c-76 -78 -141 -142 -145 -144 -5 -2 -8 150
-8 337 0 188 -3 341 -6 341 -8 0 -127 -60 -140 -71 -8 -7 -32 1 -76 25 -35 19
-82 42 -106 50 l-42 15 0 -721 0 -721 93 89 c208 202 399 283 537 228 71 -29
106 -110 80 -188 -23 -69 -64 -79 -223 -49 -76 14 -104 14 -177 5 -90 -12
-196 -44 -268 -81 l-42 -21 0 -277 0 -276 99 96 c176 171 318 243 460 235 55
-3 75 -9 104 -31 41 -31 62 -83 54 -139 -12 -93 -57 -111 -206 -83 -148 28
-274 12 -437 -56 l-74 -31 0 -281 0 -281 88 87 c107 106 175 157 270 205 64
31 85 36 160 40 70 2 94 0 121 -15 56 -29 76 -65 76 -135 0 -55 -3 -62 -33
-89 -37 -33 -64 -36 -162 -14 -148 33 -285 14 -462 -63 l-58 -25 0 -301 0
-301 94 91 c194 188 376 272 512 235 77 -21 125 -96 110 -174 -15 -79 -62
-101 -176 -80 -169 32 -327 12 -484 -60 -56 -27 -82 -45 -105 -78 -38 -51 -61
-126 -60 -188 2 -89 -4 -86 154 -87 222 -1 379 -44 473 -128 46 -42 82 -108
82 -150 0 -67 -76 -146 -139 -146 -38 0 -80 40 -159 150 -26 35 -74 86 -106
112 -65 52 -187 119 -253 139 -40 11 -45 10 -83 -14 -22 -15 -42 -27 -45 -27
-3 0 -6 588 -7 1307 l-3 1307 -39 8 c-52 11 -101 50 -126 98 -19 37 -20 60
-20 445 0 263 3 405 10 405 64 0 -165 152 -262 174 l-28 6 0 -212z m113 -518
c36 -28 42 -70 19 -122 -55 -125 -227 -170 -269 -71 -13 32 -13 40 2 79 40
106 177 169 248 114z m1328 -149 c36 -36 38 -80 6 -136 -67 -119 -248 -143
-272 -35 -4 19 0 44 13 72 34 76 107 127 180 128 35 0 49 -6 73 -29z m-1140
-361 c17 -10 19 -23 19 -150 0 -113 -3 -142 -16 -154 -20 -21 -30 -20 -54 4
-18 18 -20 33 -20 143 0 95 4 128 16 145 17 25 27 27 55 12z m1333 -152 c12
-17 16 -50 16 -143 0 -128 -11 -165 -50 -165 -42 0 -50 24 -50 158 0 136 11
172 50 172 10 0 26 -10 34 -22z m-1657 -317 c26 -12 48 -32 59 -53 23 -43 23
-118 0 -152 -28 -44 -59 -50 -165 -30 -65 11 -125 15 -190 12 -91 -5 -141 -18
-316 -83 -39 -14 173 184 250 234 132 86 270 113 362 72z m331 -13 c8 -8 12
-56 12 -148 0 -140 -5 -160 -41 -160 -37 0 -49 38 -49 157 0 129 9 163 43 163
13 0 28 -5 35 -12z m1332 -147 c13 -25 13 -241 0 -275 -7 -20 -17 -26 -39 -26
-44 0 -51 23 -51 160 0 137 7 160 50 160 19 0 33 -7 40 -19z m-1332 -323 c17
-17 17 -279 0 -296 -7 -7 -22 -12 -35 -12 -36 0 -45 39 -41 178 2 96 6 125 18
132 21 13 44 12 58 -2z m-328 -86 c46 -23 74 -73 74 -133 0 -88 -49 -123 -149
-107 -171 28 -194 29 -286 13 -75 -13 -157 -39 -259 -83 -32 -13 55 81 140
152 93 78 194 140 263 162 63 19 175 18 217 -4z m1654 -64 c12 -17 16 -50 16
-145 0 -110 -2 -125 -20 -143 -26 -26 -45 -25 -64 2 -23 33 -23 270 0 292 22
22 50 20 68 -6z m-1333 -318 c17 -10 19 -23 19 -150 0 -113 -3 -142 -16 -154
-20 -21 -30 -20 -54 4 -18 18 -20 33 -20 143 0 95 4 128 16 145 17 25 27 27
55 12z m1333 -152 c12 -17 16 -50 16 -143 0 -93 -4 -126 -16 -143 -18 -26 -46
-28 -68 -6 -23 22 -23 259 0 292 19 28 49 28 68 0z m-1326 -330 c8 -8 12 -56
12 -148 0 -140 -5 -160 -41 -160 -37 0 -49 38 -49 157 0 129 9 163 43 163 13
0 28 -5 35 -12z m1332 -147 c13 -25 13 -241 0 -275 -7 -20 -17 -26 -39 -26
-44 0 -51 23 -51 160 0 137 7 160 50 160 19 0 33 -7 40 -19z m-1602 -40 c99
-51 128 -148 58 -194 -109 -72 -301 33 -272 148 15 60 136 86 214 46z m1328
-142 c51 -25 94 -80 94 -121 0 -16 -12 -41 -28 -59 -23 -26 -38 -33 -80 -37
-159 -15 -286 156 -164 222 40 22 124 20 178 -5z m-1756 -95 c137 -29 265
-106 307 -188 24 -45 13 -120 -23 -158 -77 -81 -136 -68 -211 46 -87 131 -183
209 -348 281 -54 23 -72 35 -58 39 31 9 255 -4 333 -20z m698 -86 c8 -8 12
-47 12 -108 0 -99 -7 -120 -41 -120 -33 0 -49 39 -49 120 0 52 5 82 16 98 17
24 43 29 62 10z m1326 -110 c12 -17 16 -50 16 -145 0 -110 -2 -125 -20 -143
-11 -11 -24 -20 -30 -20 -5 0 -19 9 -30 20 -18 18 -20 33 -20 149 0 104 3 133
16 145 22 22 50 20 68 -6z m-1262 -269 c81 -91 150 -195 179 -272 32 -83 34
-206 4 -256 -39 -65 -124 -89 -195 -53 -57 28 -65 58 -46 162 9 48 16 125 16
171 0 118 -17 180 -98 369 -11 26 76 -49 140 -121z m-1667 -53 c42 -18 55 -42
55 -101 0 -58 -28 -113 -80 -157 -62 -54 -136 -71 -189 -44 -105 55 -36 251
108 302 47 17 64 17 106 0z m1325 -141 c66 -34 76 -118 23 -202 -43 -69 -100
-106 -173 -111 -55 -4 -61 -2 -90 26 -24 25 -30 39 -30 74 1 88 70 183 157
213 50 18 78 18 113 0z m948 -4 c102 -52 160 -188 117 -271 -19 -37 -43 -50
-95 -50 -50 0 -84 17 -132 67 -47 48 -68 99 -68 163 0 44 5 56 29 81 36 35 92
39 149 10z m656 -3 c12 -17 16 -50 16 -143 0 -128 -11 -165 -50 -165 -42 0
-50 24 -50 158 0 136 11 172 50 172 10 0 26 -10 34 -22z"/>
<path d="M4380 4399 c0 -380 -2 -417 -19 -454 -20 -45 -70 -92 -107 -101 l-24
-6 0 -1679 0 -1678 55 24 c160 71 319 161 455 258 l59 42 0 1775 c1 1184 -3
1790 -10 1820 -41 181 -213 363 -381 405 l-28 7 0 -413z m21 -669 c17 -10 19
-23 19 -153 0 -147 -5 -167 -41 -167 -42 0 -49 25 -49 165 0 108 3 137 16 149
18 19 28 20 55 6z m17 -619 c3 -152 -2 -171 -42 -171 -41 0 -46 17 -46 160 0
149 5 163 55 158 l30 -3 3 -144z m-10 -333 c8 -8 12 -57 12 -155 0 -143 0
-143 -25 -155 -21 -9 -28 -8 -45 7 -18 16 -20 31 -20 147 0 71 5 138 10 149
12 21 50 25 68 7z m-7 -468 c17 -10 19 -23 19 -153 0 -151 -4 -167 -47 -167
-35 0 -43 30 -43 169 0 104 3 133 16 145 18 19 28 20 55 6z m17 -619 c3 -152
-2 -171 -42 -171 -41 0 -46 17 -46 160 0 149 5 163 55 158 l30 -3 3 -144z
m-10 -333 c8 -8 12 -57 12 -155 0 -143 0 -143 -25 -155 -21 -9 -28 -8 -45 7
-18 16 -20 31 -20 147 0 71 5 138 10 149 12 21 50 25 68 7z m-7 -468 c17 -10
19 -23 19 -153 0 -151 -4 -167 -47 -167 -35 0 -43 30 -43 166 0 105 3 131 17
146 19 21 27 22 54 8z"/>
</g>
</svg>
