<?xml version="1.0" standalone="no"?>
<!DOCTYPE svg PUBLIC "-//W3C//DTD SVG 20010904//EN"
 "http://www.w3.org/TR/2001/REC-SVG-20010904/DTD/svg10.dtd">
<svg version="1.0" xmlns="http://www.w3.org/2000/svg"
 width="512.000000pt" height="512.000000pt" viewBox="0 0 512.000000 512.000000"
 preserveAspectRatio="xMidYMid meet">

<g transform="translate(0.000000,512.000000) scale(0.100000,-0.100000)"
fill="#000000" stroke="none">
<path d="M2015 4786 c-94 -41 -124 -168 -58 -247 45 -53 73 -59 268 -59 l175
0 0 -239 0 -239 -222 -4 c-211 -4 -227 -5 -296 -30 -104 -37 -176 -83 -252
-158 -75 -76 -121 -149 -157 -252 -23 -63 -27 -94 -31 -223 l-5 -150 -88 -29
c-279 -90 -492 -342 -539 -636 -8 -54 -10 -314 -8 -940 l3 -865 23 -45 c35
-72 75 -114 144 -151 l63 -34 1525 0 1525 0 63 34 c70 38 100 69 140 145 l27
51 3 865 c2 626 0 886 -8 940 -49 312 -281 571 -586 652 l-42 12 -4 150 c-5
168 -24 243 -90 354 -72 122 -218 238 -358 284 -56 19 -94 22 -287 26 l-223 4
0 239 0 239 335 0 c261 0 343 -3 368 -14 44 -18 85 -69 92 -114 3 -20 8 -53
11 -72 8 -46 68 -106 117 -115 60 -11 107 3 148 44 46 45 56 90 41 183 -30
195 -190 361 -381 398 -33 6 -310 10 -730 10 -539 -1 -682 -3 -706 -14z m1155
-1134 c72 -35 114 -76 150 -144 32 -60 34 -69 38 -185 l4 -123 -802 0 -802 0
4 123 c4 102 8 130 29 172 41 86 123 153 214 176 17 4 275 7 575 6 544 -2 545
-2 590 -25z"/>
</g>
</svg>
