<?xml version="1.0" standalone="no"?>
<!DOCTYPE svg PUBLIC "-//W3C//DTD SVG 20010904//EN"
 "http://www.w3.org/TR/2001/REC-SVG-20010904/DTD/svg10.dtd">
<svg version="1.0" xmlns="http://www.w3.org/2000/svg"
 width="512.000000pt" height="512.000000pt" viewBox="0 0 512.000000 512.000000"
 preserveAspectRatio="xMidYMid meet">

<g transform="translate(0.000000,512.000000) scale(0.100000,-0.100000)"
fill="#000000" stroke="none">
<path d="M2155 2875 c-53 -52 -14 -144 62 -145 76 0 115 89 63 145 -32 34 -91
35 -125 0z"/>
<path d="M2835 2868 c-32 -38 -29 -81 11 -115 69 -62 169 12 134 98 -15 36
-37 49 -83 49 -27 0 -41 -7 -62 -32z"/>
<path d="M2433 2705 c-60 -30 -100 -78 -119 -143 -15 -48 -11 -76 13 -104 39
-44 128 -24 139 32 8 37 33 59 75 66 53 9 87 -10 108 -59 33 -77 115 -87 154
-19 17 29 18 35 3 84 -18 64 -67 120 -127 148 -67 30 -180 28 -246 -5z"/>
</g>
</svg>
